<!DOCTYPE svg PUBLIC "-//W3C//DTD SVG 20010904//EN" "http://www.w3.org/TR/2001/REC-SVG-20010904/DTD/svg10.dtd">
<svg version="1.0" xmlns="http://www.w3.org/2000/svg" width="314px" height="320px" viewBox="0 0 3140 3200" preserveAspectRatio="xMidYMid meet">
<g id="layer101" fill="#42a4ba" stroke="none">
 <path d="M346 2873 c-77 -9 -71 112 -74 -1312 -2 -912 1 -1283 8 -1302 8 -18 22 -29 42 -33 17 -3 417 -6 889 -6 l858 0 16 30 c12 23 15 70 15 238 l0 210 -27 5 c-15 3 -38 1 -51 -4 l-24 -9 7 -165 c6 -142 5 -166 -8 -180 -14 -13 -103 -15 -808 -13 l-793 3 -7 25 c-4 14 -7 564 -8 1223 -1 1026 1 1200 13 1213 12 12 133 14 799 14 706 0 785 -2 791 -16 3 -9 6 -54 6 -100 0 -48 4 -84 10 -84 5 0 7 -13 4 -28 -3 -16 1 -49 9 -73 12 -35 20 -45 40 -47 42 -5 49 24 51 209 1 149 -1 170 -17 186 -17 17 -65 18 -860 19 -463 1 -860 -1 -881 -3z"/>
 <path d="M1418 2368 c-10 -12 -18 -28 -18 -35 0 -7 -5 -22 -12 -33 -10 -15 -9 -30 5 -72 20 -66 35 -523 18 -548 -7 -9 -14 -11 -18 -5 -10 13 -50 35 -63 35 -9 0 -70 43 -123 86 -9 8 -26 14 -36 14 -24 0 -62 -46 -54 -66 5 -14 -37 -94 -69 -128 -10 -11 -18 -27 -18 -36 0 -9 -10 -26 -22 -37 -13 -11 -36 -37 -53 -58 -16 -21 -41 -49 -55 -63 -48 -50 -77 -186 -47 -224 15 -20 132 -98 146 -98 20 0 92 -43 101 -60 5 -9 24 -20 41 -24 18 -3 38 -15 46 -26 8 -11 23 -20 33 -20 10 0 20 -4 22 -8 5 -12 65 -52 78 -52 7 0 31 -19 54 -41 22 -23 59 -50 82 -59 22 -10 48 -29 57 -43 31 -47 127 -43 127 5 0 10 9 26 20 35 12 11 20 30 20 49 0 43 48 134 70 134 10 0 23 7 30 15 7 8 21 15 30 15 10 0 20 5 22 11 6 18 127 14 188 -6 30 -10 64 -26 76 -36 11 -11 26 -19 32 -19 7 0 12 -3 12 -7 0 -5 16 -25 35 -46 29 -32 55 -88 55 -122 0 -42 24 -85 56 -104 19 -12 41 -21 48 -21 7 0 44 30 82 68 38 37 82 73 97 80 27 11 39 20 76 52 9 8 29 21 44 28 15 6 38 17 52 24 13 6 34 19 44 30 11 10 24 18 30 18 13 0 144 60 151 68 10 14 61 32 90 32 31 0 60 30 60 62 0 10 -15 48 -33 86 -18 37 -44 99 -56 137 -13 39 -32 92 -42 119 -11 27 -19 54 -19 61 0 7 -11 38 -25 69 -21 47 -29 56 -50 56 -14 0 -28 -6 -31 -14 -3 -8 -21 -17 -40 -20 -19 -4 -34 -11 -34 -15 0 -13 -176 -81 -208 -81 -15 0 -16 103 -2 405 7 137 17 251 26 281 19 67 18 87 -5 112 -24 28 -56 28 -76 0 -15 -23 -17 -23 -298 -24 -295 0 -545 9 -610 23 -26 5 -42 16 -50 33 -17 34 -65 39 -89 8z m482 -168 c5 9 22 10 56 5 98 -13 397 -17 404 -5 9 15 48 -7 56 -32 9 -29 -16 -661 -27 -689 -6 -15 -9 -40 -7 -55 3 -26 7 -29 46 -32 25 -2 42 1 42 7 0 6 16 11 35 11 19 0 35 5 35 10 0 6 9 10 20 10 30 0 110 23 110 32 0 4 8 8 18 8 10 0 22 4 27 9 6 5 29 12 53 16 32 5 42 4 42 -7 0 -7 6 -25 14 -40 8 -15 17 -42 21 -60 7 -35 11 -48 40 -113 37 -84 40 -125 9 -125 -8 0 -14 -4 -14 -10 0 -5 -7 -10 -15 -10 -8 0 -15 -4 -15 -10 0 -5 -13 -10 -29 -10 -17 0 -33 -4 -36 -10 -3 -5 -15 -10 -26 -10 -10 0 -19 -4 -19 -10 0 -5 -8 -10 -19 -10 -10 0 -32 -13 -49 -30 -18 -16 -36 -30 -42 -30 -5 0 -10 -4 -10 -10 0 -5 -13 -10 -28 -10 -16 0 -34 -8 -42 -20 -8 -11 -20 -20 -27 -20 -7 0 -13 -4 -13 -10 0 -5 -9 -10 -19 -10 -10 0 -33 -13 -50 -29 -33 -31 -96 -71 -112 -71 -5 0 -9 20 -9 45 0 37 -6 51 -27 73 -16 15 -36 39 -46 55 -9 15 -24 27 -32 27 -7 0 -16 8 -19 18 -4 10 -22 25 -41 32 -19 8 -35 17 -35 22 0 4 -7 8 -15 8 -9 0 -27 8 -42 17 -18 12 -54 18 -121 21 -101 5 -165 -8 -193 -40 -9 -10 -26 -18 -38 -18 -21 0 -61 -32 -61 -49 0 -5 -9 -11 -20 -14 -12 -3 -20 -14 -20 -26 0 -25 -41 -111 -52 -111 -5 0 -18 9 -30 20 -12 11 -32 20 -45 20 -13 0 -23 5 -23 10 0 6 -6 10 -13 10 -7 0 -19 9 -27 20 -8 11 -22 20 -32 20 -10 0 -18 5 -18 10 0 6 -7 10 -16 10 -9 0 -24 8 -33 18 -28 31 -143 102 -165 102 -6 0 -22 14 -35 30 -16 21 -32 30 -52 30 -16 0 -29 5 -29 10 0 6 -11 10 -25 10 -14 0 -25 5 -25 10 0 6 -6 10 -14 10 -8 0 -17 7 -20 16 -18 46 3 89 81 173 73 78 77 83 93 120 7 19 29 49 47 67 28 28 38 33 65 27 17 -3 39 -14 50 -25 10 -10 25 -18 33 -18 8 0 19 -8 24 -19 18 -33 76 -53 124 -44 l42 9 8 74 c4 41 5 194 2 340 l-6 265 186 -14 c149 -11 189 -11 195 -1z"/>
 </g>
<g id="layer102" fill="#44a1d2" stroke="none">
 <path d="M343 2873 c-30 -3 -40 -8 -37 -17 3 -7 -3 -22 -13 -31 -17 -18 -18 -79 -21 -1279 -2 -895 1 -1269 9 -1287 7 -18 21 -29 41 -33 17 -3 417 -6 889 -6 l858 0 13 28 c10 20 12 75 8 224 -3 108 -2 194 3 191 4 -2 7 5 7 15 0 24 -42 35 -78 21 l-24 -9 7 -165 c6 -142 5 -166 -8 -180 -14 -13 -103 -15 -808 -13 l-793 3 -7 25 c-4 14 -7 564 -8 1223 -1 1026 1 1200 13 1213 12 12 133 14 799 14 706 0 785 -2 791 -16 3 -9 6 -54 6 -100 0 -56 4 -83 10 -79 7 4 9 -7 5 -32 -8 -56 16 -117 48 -121 42 -5 49 24 51 209 1 149 -1 170 -17 186 -17 17 -65 18 -860 19 -463 0 -861 -1 -884 -3z"/>
 <path d="M1433 2376 c4 -11 1 -13 -11 -9 -15 6 -16 5 -2 -12 14 -17 13 -18 -2 -12 -12 4 -18 1 -18 -8 0 -9 -5 -24 -12 -35 -10 -15 -8 -30 6 -77 13 -40 18 -87 18 -153 0 -67 2 -89 9 -75 8 17 6 -114 -4 -316 -1 -17 -27 -22 -27 -5 0 11 -45 36 -64 36 -5 0 -20 10 -33 22 -19 17 -23 19 -17 5 3 -10 1 -17 -5 -17 -6 0 -11 9 -11 19 0 11 -13 28 -30 38 -16 9 -30 22 -30 27 0 5 -7 1 -16 -10 -8 -10 -13 -14 -10 -7 4 6 1 15 -5 19 -16 10 -60 -42 -53 -61 6 -15 -36 -95 -68 -129 -10 -11 -18 -27 -18 -36 0 -9 -10 -26 -22 -37 -13 -11 -36 -37 -53 -58 -16 -21 -41 -49 -55 -63 -48 -50 -78 -187 -47 -224 13 -17 71 -58 82 -58 3 0 3 6 -1 13 -4 7 -3 9 2 4 5 -5 9 -13 9 -18 0 -11 20 -23 98 -59 26 -12 51 -30 57 -39 5 -10 24 -21 41 -25 18 -3 38 -15 46 -26 8 -11 23 -20 33 -20 10 0 20 -4 22 -8 6 -14 66 -52 81 -52 9 0 25 -12 36 -27 18 -24 22 -26 32 -13 9 13 10 13 5 -2 -6 -19 36 -58 61 -58 9 0 30 -16 48 -35 56 -62 133 -55 138 12 1 20 7 30 17 29 10 -1 16 10 18 34 4 50 50 140 72 140 10 0 23 7 30 15 7 8 21 15 30 15 10 0 20 5 22 11 6 18 127 14 188 -6 30 -10 65 -27 77 -38 12 -11 29 -17 37 -14 9 4 13 1 10 -6 -2 -7 8 -26 24 -42 38 -40 47 -59 62 -130 16 -77 21 -86 64 -109 36 -19 73 -16 60 5 -4 7 -3 9 4 5 14 -8 124 102 116 116 -5 7 -2 8 5 4 17 -11 71 13 71 31 0 8 4 12 10 8 5 -3 17 2 27 12 10 10 31 24 46 31 15 6 38 17 52 24 13 6 34 19 44 30 11 10 24 18 30 18 13 0 144 60 151 68 10 14 61 32 90 32 31 0 60 30 60 62 0 10 -15 48 -33 85 -33 69 -70 166 -81 216 -4 15 -13 27 -21 27 -18 0 -28 17 -18 33 4 6 6 22 4 35 -4 32 -36 103 -43 96 -3 -3 -5 3 -5 13 2 23 -42 31 -58 10 -5 -8 -25 -18 -43 -21 -17 -4 -32 -11 -32 -16 0 -12 -177 -80 -210 -80 -10 0 -12 40 -8 205 3 113 1 205 -3 205 -5 0 -9 9 -9 20 0 11 7 20 15 20 12 0 15 18 15 99 0 62 6 114 15 141 20 56 19 82 -4 108 -24 28 -56 28 -76 0 l-15 -23 -383 -1 c-210 0 -404 4 -432 9 -27 5 -65 12 -83 16 -21 4 -37 15 -45 31 -15 29 -85 45 -74 16z m310 -167 c14 14 87 14 87 0 0 -6 -7 -9 -15 -6 -8 4 -17 2 -20 -3 -4 -6 17 -10 49 -10 34 0 56 4 56 11 0 7 17 9 53 4 101 -12 407 -17 407 -6 0 17 13 13 40 -12 25 -22 25 -23 18 -137 -3 -63 -3 -121 1 -129 5 -7 5 -25 0 -40 -5 -14 -13 -109 -18 -211 -5 -102 -12 -205 -14 -229 -3 -28 -2 -39 4 -30 7 11 9 11 9 -3 0 -14 8 -18 35 -18 19 0 35 5 35 10 0 6 16 10 35 10 19 0 35 5 35 10 0 6 9 10 20 10 30 0 110 23 110 32 0 4 8 8 18 8 10 0 22 4 27 9 6 5 29 12 53 16 32 5 42 4 42 -7 0 -7 6 -25 14 -39 7 -14 16 -38 20 -53 4 -15 11 -24 16 -21 6 3 10 2 10 -4 0 -5 -5 -11 -11 -13 -8 -3 -9 -10 -2 -23 59 -113 73 -185 37 -185 -8 0 -14 -4 -14 -10 0 -5 -7 -10 -15 -10 -8 0 -15 -4 -15 -10 0 -5 -13 -10 -29 -10 -17 0 -33 -4 -36 -10 -3 -5 -15 -10 -26 -10 -11 0 -17 -4 -14 -10 3 -5 -1 -11 -9 -11 -25 -2 -30 -4 -51 -16 -11 -7 -14 -13 -7 -13 7 0 10 -5 7 -11 -4 -6 -13 -8 -21 -5 -8 3 -14 1 -14 -4 0 -6 -7 -10 -15 -10 -8 0 -15 -4 -15 -10 0 -5 -13 -10 -28 -10 -16 0 -34 -8 -42 -20 -8 -11 -20 -20 -28 -20 -7 0 -10 -5 -7 -10 3 -6 1 -10 -5 -10 -6 0 -8 -5 -5 -10 7 -12 -22 -26 -33 -16 -3 4 0 11 8 16 8 6 10 10 4 10 -7 0 -26 -13 -43 -29 -33 -31 -96 -71 -112 -71 -5 0 -9 18 -9 41 0 49 -16 83 -36 75 -9 -4 -12 -2 -8 5 4 6 3 14 -2 18 -5 3 -18 19 -28 34 -12 20 -23 27 -37 24 -11 -3 -19 0 -18 6 3 26 -3 34 -36 47 -19 8 -35 18 -35 23 0 5 -11 7 -25 5 -14 -3 -23 -1 -22 5 4 20 -67 36 -160 36 -78 1 -91 -1 -87 -14 5 -12 0 -14 -24 -9 -31 6 -62 -11 -62 -34 0 -6 -9 -8 -19 -5 -25 6 -58 -12 -66 -36 -3 -10 -15 -21 -25 -24 -12 -3 -20 -14 -20 -27 0 -11 -7 -34 -15 -50 -9 -17 -13 -30 -10 -30 4 0 0 -7 -9 -15 -19 -19 -23 -19 -48 5 -25 23 -46 27 -28 5 10 -12 10 -15 -4 -15 -9 0 -16 5 -16 11 0 14 -25 39 -39 39 -6 0 -11 5 -11 11 0 6 -7 9 -14 6 -10 -4 -13 -1 -9 9 3 9 -2 14 -16 14 -12 0 -21 5 -21 11 0 5 -9 9 -20 7 -10 -2 -19 1 -19 5 0 20 -144 117 -175 117 -6 0 -22 14 -35 31 -21 26 -30 30 -57 26 -26 -4 -32 -2 -27 9 4 10 -2 14 -21 14 -14 0 -26 5 -26 10 0 6 -6 10 -14 10 -29 0 -35 63 -10 98 9 13 13 30 10 38 -3 9 -2 12 5 9 5 -4 32 17 59 47 73 78 75 81 90 117 7 19 29 49 47 67 28 28 38 33 65 27 17 -3 39 -14 50 -25 10 -10 23 -18 29 -18 6 0 23 -13 39 -29 33 -32 70 -43 120 -32 l35 7 8 74 c4 41 5 194 2 340 l-6 266 107 -9 c73 -5 110 -5 117 2z m-226 -306 c-2 -16 -4 -3 -4 27 0 30 2 43 4 28 2 -16 2 -40 0 -55z m-297 -233 c0 -5 -7 -10 -15 -10 -8 0 -15 5 -15 10 0 6 7 10 15 10 8 0 15 -4 15 -10z m-284 -428 c-12 -12 -18 8 -10 35 l8 28 4 -28 c2 -16 1 -31 -2 -35z m289 -212 c3 -5 -3 -10 -15 -10 -12 0 -18 5 -15 10 3 6 10 10 15 10 5 0 12 -4 15 -10z"/>
 </g>

</svg>